<?xml version="1.0" encoding="UTF-8"?>
<svg width="80px" height="70px" viewBox="0 0 80 70" version="1.1" xmlns="http://www.w3.org/2000/svg" xmlns:xlink="http://www.w3.org/1999/xlink">
    <!-- Generator: sketchtool 58 (101010) - https://sketch.com -->
    <title>A05D8388-90F2-4F5C-9E51-55D545155D90</title>
    <desc>Created with sketchtool.</desc>
    <g id="Page-1" stroke="none" stroke-width="1" fill="none" fill-rule="evenodd">
        <g id="Landing-page_With-new-footer" transform="translate(-120.000000, -2381.000000)" fill-rule="nonzero">
            <g id="open-book" transform="translate(120.000000, 2381.000000)">
                <path d="M80,9.41666667 L80,62.75 C80,63.4863282 79.4029948,64.0833333 78.6666667,64.0833333 L49.9733073,64.0833333 C47.0664063,67.6165365 43.826823,69.4166667 40.3463542,69.4166667 C35.2532552,69.4166667 31.3203125,65.5234375 30.0533853,64.0833333 L1.33333333,64.0833333 C0.597005167,64.0833333 -2.84217094e-14,63.4863282 -2.84217094e-14,62.75 L-2.84217094e-14,9.41666667 C-2.84217094e-14,8.6803385 0.597005167,8.08333333 1.33333333,8.08333333 L78.6666667,8.08333333 C79.4029948,8.08333333 80,8.6803385 80,9.41666667 Z" id="Path" fill="#AD5DA3"></path>
                <path d="M74.6666667,1.41666667 L74.6666667,54.75 C74.6666667,55.4863282 74.0696615,56.0833333 73.3333333,56.0833333 L50.6666667,56.0833333 C44.4667968,56.0833333 41.3333333,58.3235677 41.3333333,62.75 C41.3333333,63.4863282 40.7363282,64.0833333 40,64.0833333 C39.2636718,64.0833333 38.6666667,63.4863282 38.6666667,62.75 C38.6666667,58.3235677 35.5332032,56.0833333 29.3333333,56.0833333 L6.66666667,56.0833333 C5.9303385,56.0833333 5.33333333,55.4863282 5.33333333,54.75 L5.33333333,1.41666667 C5.33333333,0.6803385 5.9303385,0.0833333333 6.66666667,0.0833333333 L29.3333333,0.0833333333 C34.5065103,0.0833333333 38.173177,1.64322917 40,4.49674483 C41.826823,1.64322917 45.4934897,0.0833333333 50.6666667,0.0833333333 L73.3333333,0.0833333333 C74.0696615,0.0833333333 74.6666667,0.6803385 74.6666667,1.41666667 Z" id="Path" fill="#F7EFF6"></path>
                <g id="Group" transform="translate(13.333333, 10.666667)" fill="#AD5DA3">
                    <path d="M18.6666667,2.75 L1.33333333,2.75 C0.597005167,2.75 0,2.15299483 0,1.41666667 C0,0.6803385 0.597005167,0.0833333333 1.33333333,0.0833333333 L18.6666667,0.0833333333 C19.4029948,0.0833333333 20,0.6803385 20,1.41666667 C20,2.15299483 19.4029948,2.75 18.6666667,2.75 Z" id="Path"></path>
                    <path d="M18.6666667,10.75 L1.33333333,10.75 C0.597005167,10.75 0,10.1529948 0,9.41666667 C0,8.6803385 0.597005167,8.08333333 1.33333333,8.08333333 L18.6666667,8.08333333 C19.4029948,8.08333333 20,8.6803385 20,9.41666667 C20,10.1529948 19.4029948,10.75 18.6666667,10.75 Z" id="Path"></path>
                    <path d="M18.6666667,18.75 L1.33333333,18.75 C0.597005167,18.75 0,18.1529948 0,17.4166667 C0,16.6803385 0.597005167,16.0833333 1.33333333,16.0833333 L18.6666667,16.0833333 C19.4029948,16.0833333 20,16.6803385 20,17.4166667 C20,18.1529948 19.4029948,18.75 18.6666667,18.75 Z" id="Path"></path>
                    <path d="M18.6666667,26.75 L1.33333333,26.75 C0.597005167,26.75 0,26.1529948 0,25.4166667 C0,24.6803385 0.597005167,24.0833333 1.33333333,24.0833333 L18.6666667,24.0833333 C19.4029948,24.0833333 20,24.6803385 20,25.4166667 C20,26.1529948 19.4029948,26.75 18.6666667,26.75 Z" id="Path"></path>
                    <path d="M18.6666667,34.75 L1.33333333,34.75 C0.597005167,34.75 0,34.1529948 0,33.4166667 C0,32.6803385 0.597005167,32.0833333 1.33333333,32.0833333 L18.6666667,32.0833333 C19.4029948,32.0833333 20,32.6803385 20,33.4166667 C20,34.1529948 19.4029948,34.75 18.6666667,34.75 Z" id="Path"></path>
                    <path d="M52,2.75 L34.6666667,2.75 C33.9303385,2.75 33.3333333,2.15299483 33.3333333,1.41666667 C33.3333333,0.6803385 33.9303385,0.0833333333 34.6666667,0.0833333333 L52,0.0833333333 C52.7363282,0.0833333333 53.3333333,0.6803385 53.3333333,1.41666667 C53.3333333,2.15299483 52.7363282,2.75 52,2.75 Z" id="Path"></path>
                    <path d="M52,10.75 L34.6666667,10.75 C33.9303385,10.75 33.3333333,10.1529948 33.3333333,9.41666667 C33.3333333,8.6803385 33.9303385,8.08333333 34.6666667,8.08333333 L52,8.08333333 C52.7363282,8.08333333 53.3333333,8.6803385 53.3333333,9.41666667 C53.3333333,10.1529948 52.7363282,10.75 52,10.75 Z" id="Path"></path>
                    <path d="M52,18.75 L34.6666667,18.75 C33.9303385,18.75 33.3333333,18.1529948 33.3333333,17.4166667 C33.3333333,16.6803385 33.9303385,16.0833333 34.6666667,16.0833333 L52,16.0833333 C52.7363282,16.0833333 53.3333333,16.6803385 53.3333333,17.4166667 C53.3333333,18.1529948 52.7363282,18.75 52,18.75 Z" id="Path"></path>
                    <path d="M52,26.75 L34.6666667,26.75 C33.9303385,26.75 33.3333333,26.1529948 33.3333333,25.4166667 C33.3333333,24.6803385 33.9303385,24.0833333 34.6666667,24.0833333 L52,24.0833333 C52.7363282,24.0833333 53.3333333,24.6803385 53.3333333,25.4166667 C53.3333333,26.1529948 52.7363282,26.75 52,26.75 Z" id="Path"></path>
                    <path d="M52,34.75 L34.6666667,34.75 C33.9303385,34.75 33.3333333,34.1529948 33.3333333,33.4166667 C33.3333333,32.6803385 33.9303385,32.0833333 34.6666667,32.0833333 L52,32.0833333 C52.7363282,32.0833333 53.3333333,32.6803385 53.3333333,33.4166667 C53.3333333,34.1529948 52.7363282,34.75 52,34.75 Z" id="Path"></path>
                </g>
                <path d="M40,64.0833333 C39.2636718,64.0833333 38.6666667,63.4863282 38.6666667,62.75 L38.6666667,6.75 C38.6666667,6.01367183 39.2636718,5.41666667 40,5.41666667 C40.7363282,5.41666667 41.3333333,6.01367183 41.3333333,6.75 L41.3333333,62.75 C41.3333333,63.4863282 40.7363282,64.0833333 40,64.0833333 Z" id="Path" fill="#FFFFFF"></path>
            </g>
        </g>
    </g>
</svg>