<?xml version="1.0" encoding="UTF-8"?>
<svg width="20px" height="20px" viewBox="0 0 20 20" version="1.1" xmlns="http://www.w3.org/2000/svg" xmlns:xlink="http://www.w3.org/1999/xlink">
    <!-- Generator: sketchtool 58 (101010) - https://sketch.com -->
    <title>946345A3-37A5-4823-BD3B-669A457CA354</title>
    <desc>Created with sketchtool.</desc>
    <g id="Contact-Us" stroke="none" stroke-width="1" fill="none" fill-rule="evenodd">
        <g id="Landing-page_With-new-footer" transform="translate(-633.000000, -3811.000000)" fill="#FFFFFF" fill-rule="nonzero">
            <g id="noun_link_1768395" transform="translate(633.000000, 3811.000000)">
                <g id="Group">
                    <path d="M17.7566964,10.34375 C17.7566964,10.9620536 17.7566964,11.578125 17.7566964,12.1964286 C17.7566964,13.1294643 17.7566964,14.0625 17.7566964,14.9955357 C17.7566964,15.3058036 17.765625,15.6160714 17.7254464,15.9241071 C17.7388393,15.8258929 17.7522321,15.7254464 17.765625,15.6272321 C17.7232143,15.9263393 17.6450893,16.2142857 17.5290179,16.4933036 C17.5669643,16.4040179 17.6049107,16.3147321 17.640625,16.2276786 C17.5245536,16.4977679 17.3772321,16.7522321 17.1986607,16.984375 C17.2566964,16.9084821 17.3147321,16.8348214 17.3727679,16.7589286 C17.1941964,16.9888393 16.9866071,17.1964286 16.7566964,17.375 C16.8325893,17.3169643 16.90625,17.2589286 16.9821429,17.2008929 C16.7477679,17.3794643 16.4955357,17.5290179 16.2254464,17.6428571 C16.3147321,17.6049107 16.4040179,17.5669643 16.4910714,17.53125 C16.2142857,17.6473214 15.9241071,17.7254464 15.625,17.7678571 C15.7232143,17.7544643 15.8236607,17.7410714 15.921875,17.7276786 C15.4553571,17.7879464 14.96875,17.7589286 14.5,17.7589286 C13.609375,17.7589286 12.7209821,17.7589286 11.8303571,17.7589286 C10.7388393,17.7589286 9.64508929,17.7589286 8.55357143,17.7589286 C7.62276786,17.7589286 6.68973214,17.7589286 5.75892857,17.7589286 C5.35267857,17.7589286 4.94642857,17.7611607 4.54241071,17.7589286 C4.38616071,17.7589286 4.23214286,17.7477679 4.078125,17.7276786 C4.17633929,17.7410714 4.27678571,17.7544643 4.375,17.7678571 C4.07589286,17.7254464 3.78794643,17.6473214 3.50892857,17.53125 C3.59821429,17.5691964 3.6875,17.6071429 3.77455357,17.6428571 C3.50446429,17.5267857 3.25,17.3794643 3.01785714,17.2008929 C3.09375,17.2589286 3.16741071,17.3169643 3.24330357,17.375 C3.01339286,17.1964286 2.80580357,16.9888393 2.62723214,16.7589286 C2.68526786,16.8348214 2.74330357,16.9084821 2.80133929,16.984375 C2.62276786,16.75 2.47321429,16.4977679 2.359375,16.2276786 C2.39732143,16.3169643 2.43526786,16.40625 2.47098214,16.4933036 C2.35491071,16.2165179 2.27678571,15.9263393 2.234375,15.6272321 C2.24776786,15.7254464 2.26116071,15.8258929 2.27455357,15.9241071 C2.21428571,15.4575893 2.24330357,14.9709821 2.24330357,14.5022321 C2.24330357,13.6116071 2.24330357,12.7232143 2.24330357,11.8325893 C2.24330357,10.7410714 2.24330357,9.64732143 2.24330357,8.55580357 C2.24330357,7.625 2.24330357,6.69196429 2.24330357,5.76116071 C2.24330357,5.35491071 2.24107143,4.94866071 2.24330357,4.54464286 C2.24330357,4.38839286 2.25446429,4.234375 2.27455357,4.08035714 C2.26116071,4.17857143 2.24776786,4.27901786 2.234375,4.37723214 C2.27678571,4.078125 2.35491071,3.79017857 2.47098214,3.51116071 C2.43303571,3.60044643 2.39508929,3.68973214 2.359375,3.77678571 C2.47544643,3.50669643 2.62276786,3.25223214 2.80133929,3.02008929 C2.74330357,3.09598214 2.68526786,3.16964286 2.62723214,3.24553571 C2.80580357,3.015625 3.01339286,2.80803571 3.24330357,2.62946429 C3.16741071,2.6875 3.09375,2.74553571 3.01785714,2.80357143 C3.25223214,2.625 3.50446429,2.47544643 3.77455357,2.36160714 C3.68526786,2.39955357 3.59598214,2.4375 3.50892857,2.47321429 C3.78571429,2.35714286 4.07589286,2.27901786 4.375,2.23660714 C4.27678571,2.25 4.17633929,2.26339286 4.078125,2.27678571 C4.34821429,2.24107143 4.62053571,2.24553571 4.89285714,2.24553571 C5.28794643,2.24553571 5.68303571,2.24553571 6.078125,2.24553571 C7.04241071,2.24553571 8.00892857,2.24553571 8.97321429,2.24553571 C9.20089286,2.24553571 9.43080357,2.24553571 9.65848214,2.24553571 C9.94419643,2.24553571 10.2455357,2.12053571 10.4486607,1.91964286 C10.6428571,1.72544643 10.7879464,1.40848214 10.7745536,1.12946429 C10.7611607,0.841517857 10.6674107,0.542410714 10.4486607,0.339285714 C10.2299107,0.138392857 9.96205357,0.0133928571 9.65848214,0.0133928571 C9.09375,0.0133928571 8.52901786,0.0133928571 7.96651786,0.0133928571 C7.05357143,0.0133928571 6.140625,0.0133928571 5.22767857,0.0133928571 C5.00669643,0.0133928571 4.78348214,0.0133928571 4.5625,0.0133928571 C3.83035714,0.0133928571 3.13169643,0.191964286 2.47767857,0.513392857 C1.74553571,0.872767857 1.12723214,1.47098214 0.694196429,2.15625 C0.247767857,2.86160714 0.0178571429,3.70982143 0.015625,4.54241071 C0.0133928571,4.85491071 0.015625,5.16741071 0.015625,5.48214286 C0.015625,6.25 0.015625,7.01785714 0.015625,7.78571429 C0.015625,8.75223214 0.015625,9.71651786 0.015625,10.6830357 C0.015625,11.5892857 0.015625,12.4955357 0.015625,13.4017857 C0.015625,13.9910714 0.015625,14.5825893 0.015625,15.171875 C0.015625,15.2678571 0.015625,15.3638393 0.015625,15.4620536 C0.0178571429,16.25 0.225446429,17.0401786 0.618303571,17.7232143 C1.41741071,19.1160714 2.94419643,19.9866071 4.546875,19.9910714 C4.89285714,19.9933036 5.23883929,19.9910714 5.58482143,19.9910714 C6.37053571,19.9910714 7.15625,19.9910714 7.94196429,19.9910714 C8.91071429,19.9910714 9.87946429,19.9910714 10.8482143,19.9910714 C11.7433036,19.9910714 12.6383929,19.9910714 13.5334821,19.9910714 C14.0982143,19.9910714 14.6629464,19.9910714 15.2276786,19.9910714 C15.3258929,19.9910714 15.4263393,19.9933036 15.5245536,19.9910714 C16.3571429,19.9754464 17.2120536,19.734375 17.9084821,19.2723214 C18.5848214,18.8236607 19.1763393,18.203125 19.5223214,17.4620536 C19.8214286,16.8169643 19.9910714,16.1495536 19.9910714,15.4352679 C19.9910714,14.7723214 19.9910714,14.1116071 19.9910714,13.4486607 C19.9910714,12.5691964 19.9910714,11.6919643 19.9910714,10.8125 C19.9910714,10.65625 19.9910714,10.5022321 19.9910714,10.3459821 C19.9910714,10.0602679 19.8660714,9.75892857 19.6651786,9.55580357 C19.4709821,9.36160714 19.1540179,9.21651786 18.875,9.22991071 C18.5870536,9.24330357 18.2879464,9.33705357 18.0848214,9.55580357 C17.8839286,9.77232143 17.7566964,10.0401786 17.7566964,10.34375 L17.7566964,10.34375 Z" id="Path"></path>
                    <path d="M13.9174107,2.24330357 C14.4754464,2.24330357 15.0357143,2.24330357 15.59375,2.24330357 C16.484375,2.24330357 17.3727679,2.24330357 18.2633929,2.24330357 C18.4665179,2.24330357 18.6696429,2.24330357 18.8727679,2.24330357 C19.1584821,2.24330357 19.4598214,2.11830357 19.6629464,1.91741071 C19.8571429,1.72321429 20.0022321,1.40625 19.9888393,1.12723214 C19.9754464,0.839285714 19.8816964,0.540178571 19.6629464,0.337053571 C19.4441964,0.136160714 19.1763393,0.0111607143 18.8727679,0.0111607143 C18.3147321,0.0111607143 17.7544643,0.0111607143 17.1964286,0.0111607143 C16.3058036,0.0111607143 15.4174107,0.0111607143 14.5267857,0.0111607143 C14.3236607,0.0111607143 14.1205357,0.0111607143 13.9174107,0.0111607143 C13.6316964,0.0111607143 13.3303571,0.136160714 13.1272321,0.337053571 C12.9330357,0.53125 12.7879464,0.848214286 12.8013393,1.12723214 C12.8147321,1.41517857 12.9084821,1.71428571 13.1272321,1.91741071 C13.3459821,2.11607143 13.6160714,2.24330357 13.9174107,2.24330357 L13.9174107,2.24330357 Z" id="Path"></path>
                    <path d="M19.9888393,6.08258929 C19.9888393,5.52455357 19.9888393,4.96428571 19.9888393,4.40625 C19.9888393,3.515625 19.9888393,2.62723214 19.9888393,1.73660714 C19.9888393,1.53348214 19.9888393,1.33035714 19.9888393,1.12723214 C19.9888393,0.841517857 19.8638393,0.540178571 19.6629464,0.337053571 C19.46875,0.142857143 19.1517857,-0.00223214286 18.8727679,0.0111607143 C18.5848214,0.0245535714 18.2857143,0.118303571 18.0825893,0.337053571 C17.8816964,0.555803571 17.7566964,0.823660714 17.7566964,1.12723214 C17.7566964,1.68526786 17.7566964,2.24553571 17.7566964,2.80357143 C17.7566964,3.69419643 17.7566964,4.58258929 17.7566964,5.47321429 C17.7566964,5.67633929 17.7566964,5.87946429 17.7566964,6.08258929 C17.7566964,6.36830357 17.8816964,6.66964286 18.0825893,6.87276786 C18.2767857,7.06696429 18.59375,7.21205357 18.8727679,7.19866071 C19.1607143,7.18526786 19.4598214,7.09151786 19.6629464,6.87276786 C19.8616071,6.65401786 19.9888393,6.38392857 19.9888393,6.08258929 L19.9888393,6.08258929 Z" id="Path"></path>
                    <path d="M10.8080357,10.7700893 C11.1026786,10.4754464 11.3995536,10.1785714 11.6941964,9.88392857 C12.3973214,9.18080357 13.1026786,8.47544643 13.8058036,7.77232143 C14.65625,6.921875 15.5066964,6.07142857 16.359375,5.21875 C17.0982143,4.47991071 17.8348214,3.74330357 18.5736607,3.00446429 C18.9308036,2.64732143 19.2946429,2.29241071 19.6473214,1.93080357 C19.6517857,1.92633929 19.65625,1.921875 19.6629464,1.91517857 C19.8660714,1.71205357 19.9888393,1.41294643 19.9888393,1.125 C19.9888393,0.850446429 19.8683036,0.524553571 19.6629464,0.334821429 C19.4508929,0.140625 19.171875,-0.00446428571 18.8727679,0.00892857143 C18.5758929,0.0223214286 18.296875,0.122767857 18.0825893,0.334821429 C17.7879464,0.629464286 17.4910714,0.926339286 17.1964286,1.22098214 C16.4933036,1.92410714 15.7879464,2.62946429 15.0848214,3.33258929 C14.234375,4.18303571 13.3839286,5.03348214 12.53125,5.88616071 C11.7924107,6.625 11.0558036,7.36160714 10.3169643,8.10044643 C9.95982143,8.45758929 9.59598214,8.8125 9.24330357,9.17410714 C9.23883929,9.17857143 9.234375,9.18303571 9.22767857,9.18973214 C9.02455357,9.39285714 8.90178571,9.69196429 8.90178571,9.97991071 C8.90178571,10.2544643 9.02232143,10.5803571 9.22767857,10.7700893 C9.43973214,10.9642857 9.71875,11.109375 10.0178571,11.0959821 C10.3147321,11.0848214 10.59375,10.984375 10.8080357,10.7700893 L10.8080357,10.7700893 Z" id="Path"></path>
                </g>
            </g>
        </g>
    </g>
</svg>