<?xml version="1.0" encoding="UTF-8"?>
<svg width="8px" height="13px" viewBox="0 0 8 13" version="1.1" xmlns="http://www.w3.org/2000/svg" xmlns:xlink="http://www.w3.org/1999/xlink">
    <!-- Generator: sketchtool 55.2 (78181) - https://sketchapp.com -->
    <title>A4D93E39-623A-4B55-9C3F-BB952F4DE5DA</title>
    <desc>Created with sketchtool.</desc>
    <g id="Sign-up/Login-In" stroke="none" stroke-width="1" fill="none" fill-rule="evenodd" opacity="0.49541">
        <g id="Sign-Up_Desktop" transform="translate(-1306.000000, -384.000000)" fill="#4F439A" fill-rule="nonzero">
            <g id="Group-20" transform="translate(1240.000000, 380.000000)">
                <g id="Group-25" transform="translate(60.000000, 0.000000)">
                    <g id="Group" transform="translate(6.666667, 4.000000)">
                        <g id="facebook-icon">
                            <path d="M1.99186763,12.0370373 L1.99186763,6.6532843 L0,6.6532843 L0,4.51388899 L1.99186763,4.51388899 L1.99186763,2.82118062 C1.99186763,1.92780229 2.26779459,1.23426899 2.81965678,0.740559913 C3.37151897,0.246850836 4.10444995,0 5.0184717,0 C5.76003652,0 6.36362673,0.0313461379 6.82926046,0.094039354 L6.82926046,1.99833627 L5.58757674,1.99833627 C5.12194301,1.99833627 4.80290247,2.09237469 4.63044554,2.28045434 C4.49247999,2.43718738 4.42349825,2.68795648 4.42349825,3.03276917 L4.42349825,4.51388899 L6.62231317,4.51388899 L6.31189224,6.6532843 L4.42349825,6.6532843 L4.42349825,12.0370373 L1.99186763,12.0370373 Z" id=""></path>
                        </g>
                    </g>
                </g>
            </g>
        </g>
    </g>
</svg>