<?xml version="1.0" encoding="UTF-8"?>
<svg width="40px" height="40px" viewBox="0 0 40 40" version="1.1" xmlns="http://www.w3.org/2000/svg" xmlns:xlink="http://www.w3.org/1999/xlink">
    <!-- Generator: Sketch 58 (84663) - https://sketch.com -->
    <title>Add Fill</title>
    <desc>Created with Sketch.</desc>
    <g id="Add-Fill" stroke="none" stroke-width="1" fill="none" fill-rule="evenodd">
        <g id="Add-FIll">
            <path d="M20.1955556,0.355555556 C9.39532045,0.355555556 0.64,9.110876 0.64,19.9111111 C0.64,30.7113462 9.39532045,39.4666667 20.1955556,39.4666667 C30.9957907,39.4666667 39.7511111,30.7113462 39.7511111,19.9111111 C39.7511111,9.110876 30.9957907,0.355555556 20.1955556,0.355555556 L20.1955556,0.355555556 Z" id="Shape" fill="#E0DEED"></path>
            <path d="M27.3066667,19.0222222 L21.9733333,19.0222222 L21.9733333,13.6888889 C21.9733333,12.9525092 21.3763797,12.3555556 20.64,12.3555556 C19.9036203,12.3555556 19.3066667,12.9525092 19.3066667,13.6888889 L19.3066667,19.0222222 L13.9733333,19.0222222 C13.2369537,19.0222222 12.64,19.6191759 12.64,20.3555556 C12.64,21.0919352 13.2369537,21.6888889 13.9733333,21.6888889 L19.3066667,21.6888889 L19.3066667,27.0222222 C19.3066667,27.7586019 19.9036203,28.3555556 20.64,28.3555556 C21.3763797,28.3555556 21.9733333,27.7586019 21.9733333,27.0222222 L21.9733333,21.6888889 L27.3066667,21.6888889 C28.0430463,21.6888889 28.64,21.0919352 28.64,20.3555556 C28.64,19.6191759 28.0430463,19.0222222 27.3066667,19.0222222 L27.3066667,19.0222222 Z" id="Shape" fill="#51439a"></path>
        </g>
    </g>
</svg>