<?xml version="1.0" encoding="UTF-8"?>
<svg width="40px" height="40px" viewBox="0 0 40 40" version="1.1" xmlns="http://www.w3.org/2000/svg" xmlns:xlink="http://www.w3.org/1999/xlink">
    <!-- Generator: Sketch 58 (84663) - https://sketch.com -->
    <title>Awards line</title>
    <desc>Created with Sketch.</desc>
    <g id="Awards-line" stroke="none" stroke-width="1" fill="none" fill-rule="evenodd">
        <g id="medals">
            <circle id="Oval" stroke="#000000" stroke-width="2.5" fill="#FFFFFF" cx="20" cy="20" r="18.75"></circle>
            <g id="Group" transform="translate(10.000000, 10.000000)" fill="#000000" fill-rule="nonzero">
                <path d="M10,0 C6.01841163,0 2.79069767,3.22771208 2.79069767,7.20929813 C2.79069767,11.1908888 6.01841163,14.4186079 10,14.4186079 C13.9815884,14.4186079 17.2093023,11.1908888 17.2093023,7.20929813 C17.2093023,3.22771208 13.9815884,0 10,0 Z M10,3.02325406 L11.2936047,5.62499673 L14.1860465,6.04650811 L12.0930233,8.06685578 L12.5872093,10.9302146 L10,9.57847118 L7.4127907,10.9302146 L7.90697674,8.06685578 L5.81395349,6.04650811 L8.70639535,5.62499673 L10,3.02325406 Z M3.88081395,11.8386559 L0,17.441862 L3.48837209,16.7441879 L4.41860465,20 L7.88517442,14.5857473 C6.26814651,14.1228406 4.87055581,13.1455156 3.88081395,11.8386559 Z M16.119186,11.8386559 C15.1294442,13.1455156 13.7318535,14.1228406 12.1148256,14.5857473 L15.5813953,20 L16.5116279,16.7441879 L20,17.441862 L16.119186,11.8386559 Z" id="Shape"></path>
            </g>
        </g>
    </g>
</svg>