<?xml version="1.0" encoding="UTF-8"?>
<svg width="40px" height="40px" viewBox="0 0 40 40" version="1.1" xmlns="http://www.w3.org/2000/svg" xmlns:xlink="http://www.w3.org/1999/xlink">
    <!-- Generator: Sketch 58 (84663) - https://sketch.com -->
    <title>Cancel line</title>
    <desc>Created with Sketch.</desc>
    <g id="Cancel-line" stroke="none" stroke-width="1" fill="none" fill-rule="evenodd">
        <g id="Close-2" fill="#000000">
            <path d="M20.1955556,0.355555556 C9.39532045,0.355555556 0.64,9.110876 0.64,19.9111111 C0.64,30.7113462 9.39532045,39.4666667 20.1955556,39.4666667 C30.9957907,39.4666667 39.7511111,30.7113462 39.7511111,19.9111111 C39.7511111,9.110876 30.9957907,0.355555556 20.1955556,0.355555556 L20.1955556,0.355555556 Z M20.1955556,36.8 C10.8680798,36.8 3.30666667,29.2385869 3.30666667,19.9111111 C3.30666667,10.5836353 10.8680798,3.02222222 20.1955556,3.02222222 C29.5230313,3.02222222 37.0844444,10.5836353 37.0844444,19.9111111 C37.0844444,24.3903229 35.3050845,28.6860779 32.1378034,31.853359 C28.9705224,35.02064 24.6747674,36.8 20.1955556,36.8 Z" id="Shape"></path>
            <path d="M27.3422222,12.7288889 C26.8216577,12.2089718 25.9783423,12.2089718 25.4577778,12.7288889 L20.4,17.9911111 L14.8977778,12.6577778 C14.5580229,12.3104975 14.0562656,12.1755069 13.5881248,12.3054344 C13.119984,12.4353619 12.7595686,12.8096394 12.647393,13.2823482 C12.5352174,13.7550569 12.6890395,14.251365 13.0488889,14.5777778 L18.5155556,19.84 L13.0488889,25.1022222 C12.6890395,25.428635 12.5352174,25.9249431 12.647393,26.3976518 C12.7595686,26.8703606 13.119984,27.2446381 13.5881248,27.3745656 C14.0562656,27.5044931 14.5580229,27.3695025 14.8977778,27.0222222 L20.4,21.6888889 L25.4577778,26.9511111 C25.7841906,27.3109605 26.2804986,27.4647826 26.7532074,27.352607 C27.2259161,27.2404314 27.6001936,26.880016 27.7301211,26.4118752 C27.8600486,25.9437344 27.725058,25.4419771 27.3777778,25.1022222 L22.2844444,19.7688889 L27.3777778,14.4355556 C27.7793734,13.9326418 27.7644151,13.2146404 27.3422222,12.7288889 L27.3422222,12.7288889 Z" id="Shape"></path>
        </g>
    </g>
</svg>