<?xml version="1.0" encoding="UTF-8"?>
<svg width="40px" height="40px" viewBox="0 0 40 40" version="1.1" xmlns="http://www.w3.org/2000/svg" xmlns:xlink="http://www.w3.org/1999/xlink">
    <!-- Generator: Sketch 58 (84663) - https://sketch.com -->
    <title>Certification Line</title>
    <desc>Created with Sketch.</desc>
    <g id="Certification-Line" stroke="none" stroke-width="1" fill="none" fill-rule="evenodd">
        <g id="certification">
            <circle id="Oval" stroke="#000000" stroke-width="2.5" fill="#FFFFFF" cx="20" cy="20" r="18.75"></circle>
            <g id="noun_Certificate_531027" transform="translate(8.800000, 12.000000)" fill="#000000" fill-rule="nonzero">
                <g id="Group">
                    <path d="M4.61994167,13.5187556 L4.08126667,13.5187556 L3.91475833,13.0012667 C3.9034,12.9663111 3.8715,12.9426 3.83549167,12.9426 C3.79875833,12.9426 3.76685833,12.9665556 3.7555,13.0012667 L3.589475,13.5187556 L3.0508,13.5187556 C3.01479167,13.5187556 2.98313333,13.5427111 2.971775,13.5769333 C2.96065833,13.6123778 2.9725,13.6500222 3.002225,13.6715333 L3.43770833,13.992 L3.2712,14.5094889 C3.260325,14.5449333 3.27265,14.5830667 3.30189167,14.6045778 C3.33089167,14.6265778 3.37028333,14.6265778 3.40049167,14.6045778 L3.83573333,14.2846 L4.270975,14.6045778 C4.285475,14.6150889 4.30311667,14.6207111 4.320275,14.6207111 C4.337675,14.6207111 4.355075,14.6150889 4.36981667,14.6045778 C4.39881667,14.5830667 4.41114167,14.5449333 4.40026667,14.5094889 L4.23375833,13.992 L4.66924167,13.6715333 C4.698725,13.6500222 4.71056667,13.6123778 4.69969167,13.5769333 C4.68785,13.5424667 4.65619167,13.5187556 4.61994167,13.5187556 Z" id="Path"></path>
                    <path d="M7.92255833,13.5187556 L7.38388333,13.5187556 L7.217375,13.0012667 C7.20601667,12.9663111 7.17411667,12.9426 7.13810833,12.9426 C7.101375,12.9426 7.069475,12.9665556 7.05811667,13.0012667 L6.89209167,13.5187556 L6.35341667,13.5187556 C6.31740833,13.5187556 6.28575,13.5427111 6.27439167,13.5769333 C6.263275,13.6123778 6.27511667,13.6500222 6.30484167,13.6715333 L6.740325,13.992 L6.57333333,14.5092444 C6.56245833,14.5446889 6.57478333,14.5828222 6.604025,14.6043333 C6.633025,14.6263333 6.67241667,14.6263333 6.702625,14.6043333 L7.13786667,14.2843556 L7.57310833,14.6043333 C7.58760833,14.6148444 7.60525,14.6204667 7.62240833,14.6204667 C7.63980833,14.6204667 7.65720833,14.6148444 7.67195,14.6043333 C7.70095,14.5828222 7.713275,14.5446889 7.7024,14.5092444 L7.53589167,13.9917556 L7.971375,13.6712889 C8.00085833,13.6497778 8.0127,13.6121333 8.001825,13.5766889 C7.99046667,13.5424667 7.95880833,13.5187556 7.92255833,13.5187556 Z" id="Path"></path>
                    <path d="M3.47009167,7.22651111 L13.5231833,7.22651111 C13.8006167,7.22651111 14.02585,6.99893333 14.02585,6.71806667 C14.02585,6.4372 13.8006167,6.20962222 13.5231833,6.20962222 L3.47009167,6.20962222 C3.19241667,6.20962222 2.967425,6.4372 2.967425,6.71806667 C2.967425,6.99893333 3.19241667,7.22651111 3.47009167,7.22651111 Z" id="Path"></path>
                    <path d="M3.47009167,4.93631111 L17.0452333,4.93631111 C17.3226667,4.93631111 17.5479,4.70873333 17.5479,4.42786667 C17.5479,4.147 17.3226667,3.91942222 17.0452333,3.91942222 L3.47009167,3.91942222 C3.19241667,3.91942222 2.967425,4.147 2.967425,4.42786667 C2.967425,4.70873333 3.19241667,4.93631111 3.47009167,4.93631111 Z" id="Path"></path>
                    <path d="M11.25925,8.24535556 L3.47033333,8.24535556 C3.19265833,8.24535556 2.96766667,8.47293333 2.96766667,8.7538 C2.96766667,9.03466667 3.19265833,9.26224444 3.47033333,9.26224444 L11.25925,9.26224444 C11.5366833,9.26224444 11.7619167,9.03466667 11.7619167,8.7538 C11.7619167,8.47293333 11.5366833,8.24535556 11.25925,8.24535556 Z" id="Path"></path>
                    <path d="M8.7435,10.4526889 L3.47033333,10.4526889 C3.19265833,10.4526889 2.96766667,10.6805111 2.96766667,10.9611333 C2.96766667,11.2417556 3.19265833,11.4695778 3.47033333,11.4695778 L8.7435,11.4695778 C9.02093333,11.4695778 9.24616667,11.2417556 9.24616667,10.9611333 C9.24616667,10.6805111 9.02093333,10.4526889 8.7435,10.4526889 Z" id="Path"></path>
                    <path d="M21.7352583,0.217555556 L1.46474167,0.217555556 C0.771158333,0.217555556 0.208075,0.787111111 0.208075,1.48866667 L0.208075,16.1113333 C0.208075,16.8128889 0.771158333,17.3824444 1.46474167,17.3824444 L21.7355,17.3824444 C22.4317417,17.3824444 22.9921667,16.8128889 22.9921667,16.1113333 L22.9921667,1.48866667 C22.9921667,0.787111111 22.4315,0.217555556 21.7352583,0.217555556 Z M22.0786667,11.4226444 C22.0373417,11.8382 21.8200833,12.1633111 21.6605833,12.3979778 C21.6146667,12.4688667 21.53975,12.5837556 21.52525,12.6228667 C21.5204167,12.6377778 21.5131667,12.6744444 21.5083333,12.7722222 C21.5059167,12.8015556 21.5059167,12.8382222 21.5032583,12.8748889 C21.491175,13.2195556 21.4769167,13.662 21.1987583,14.0531111 C20.9087583,14.4464222 20.5003417,14.5957778 20.2030917,14.7057778 C20.120925,14.7351111 19.9858333,14.7864444 19.9493417,14.8108889 C19.9203417,14.8353333 19.8357583,14.9477778 19.7850083,15.0137778 C19.5868417,15.2704444 19.31835,15.6248889 18.8497583,15.7764444 L18.8110917,15.7862222 C18.75575,15.8008889 18.6830083,15.818 18.598425,15.8277778 C18.5017583,15.8424444 18.380925,15.8448889 18.257675,15.8326667 C18.0595083,15.8204444 17.8495,15.7593333 17.6800917,15.7131333 C17.5952667,15.6884444 17.4551,15.6468889 17.409425,15.6468889 C17.358675,15.6468889 17.2185083,15.6884444 17.1242583,15.7153333 C16.9260917,15.7713111 16.67935,15.8424444 16.4062667,15.8424444 C16.2516,15.8424444 16.1017667,15.8204444 15.9616,15.7742444 C15.5000167,15.6251333 15.22935,15.2728889 15.0336,15.0140222 C14.9804333,14.9455778 14.8934333,14.8331333 14.8596,14.8062444 C14.8281833,14.7866889 14.69285,14.7353556 14.6128583,14.7060222 C14.31585,14.5960222 13.9071917,14.4466667 13.6244417,14.0582444 C13.4238583,13.7820222 13.3561917,13.4789111 13.332025,13.2124667 L9.74641667,16.1113333 L1.46474167,16.1113333 L1.46474167,1.48866667 L21.7355,1.48866667 L21.7355,6.41666667 L20.0535,7.77822222 C20.1018333,7.79777778 20.1598333,7.81977778 20.2033333,7.83444444 C20.5005833,7.94444444 20.909,8.09355556 21.19175,8.47977778 C21.4771583,8.88066667 21.4914167,9.31822222 21.5035,9.64088889 L21.5083333,9.77533333 C21.5131667,9.86308889 21.518,9.89755556 21.5228333,9.90977778 C21.5351583,9.95133333 21.6098333,10.0637778 21.6605833,10.1371111 C21.80075,10.3497778 21.97475,10.6088889 22.0496667,10.9437778 C22.0738333,11.0415556 22.0883333,11.1564444 22.0883333,11.2715778 C22.0883333,11.3226667 22.0859167,11.3715556 22.0786667,11.4226444 Z" id="Shape"></path>
                    <path d="M21.51075,11.0684444 C21.5035,11.0391111 21.49625,11.0097778 21.4865833,10.9826444 C21.4503333,10.8655556 21.39475,10.7577556 21.3343333,10.6550889 C21.3123417,10.6184222 21.2884167,10.5842 21.26425,10.5475333 C21.2449167,10.5157556 21.2255833,10.4864222 21.2038333,10.4546444 C21.1600917,10.3886444 21.1168333,10.3253333 21.083,10.2642222 C21.04675,10.2004222 21.0153333,10.1393111 20.996,10.0808889 C20.9839167,10.0417778 20.97425,9.99508889 20.9694167,9.93911111 C20.9645833,9.91955556 20.9645833,9.9 20.9624083,9.878 C20.95975,9.85844444 20.95975,9.83644444 20.9573333,9.8142 C20.9549167,9.76555556 20.9525,9.724 20.9500833,9.68244444 C20.9406583,9.38177778 20.9309917,9.06864444 20.7446667,8.80977778 C20.7229167,8.778 20.6989917,8.75111111 20.6721667,8.72422222 C20.6310833,8.68022222 20.5851667,8.64355556 20.53925,8.61177778 C20.3773333,8.49444444 20.1888333,8.42355556 20.0148333,8.36 C19.881675,8.31355556 19.780175,8.27444444 19.7030833,8.23044444 C19.6765,8.21577778 19.6523333,8.20111111 19.6303417,8.18644444 C19.6303417,8.18644444 19.627925,8.18644444 19.627925,8.184 C19.613425,8.17422222 19.6015833,8.16444444 19.5892583,8.15222222 C19.577175,8.14244444 19.5675083,8.13266667 19.5578417,8.12288889 C19.4877583,8.05444444 19.4203333,7.964 19.3475917,7.87111111 C19.1786667,7.64866667 18.9850917,7.39688889 18.6880833,7.30155556 L18.6856667,7.29911111 C18.670925,7.29422222 18.6540083,7.28933333 18.63975,7.28688889 C18.61075,7.27955556 18.5844083,7.27466667 18.5551667,7.26977778 C18.50925,7.26244444 18.4585,7.25755556 18.40775,7.25755556 C18.3618333,7.25755556 18.3159167,7.26 18.27,7.26733333 C18.2219083,7.27466667 18.173575,7.282 18.125,7.29177778 C18.125,7.29177778 18.1225833,7.29422222 18.119925,7.29177778 C18.07425,7.304 18.0280917,7.31377778 17.9824167,7.326 C17.9340833,7.33822222 17.887925,7.35044444 17.84225,7.36511111 C17.68275,7.41155556 17.5350917,7.45311111 17.4096667,7.45311111 C17.27675,7.45311111 17.1196667,7.40911111 16.95775,7.35777778 C16.9553333,7.35777778 16.9505,7.35533333 16.9456667,7.35288889 C16.936,7.35044444 16.9212583,7.348 16.907,7.34311111 C16.901925,7.34066667 16.8949167,7.33822222 16.8876667,7.33822222 C16.8804167,7.33577778 16.8731667,7.33333333 16.8659167,7.33088889 C16.8538333,7.326 16.8415083,7.32355556 16.8369167,7.32355556 C16.8345,7.32355556 16.8345,7.32355556 16.8345,7.32355556 C16.675,7.282 16.472,7.24777778 16.29075,7.26488889 C16.256675,7.26733333 16.2252583,7.27466667 16.1940833,7.282 C16.17475,7.28688889 16.1554167,7.29177778 16.1360833,7.29911111 C15.8315833,7.39688889 15.6406667,7.64866667 15.4690833,7.86866667 C15.4137417,7.942 15.3651667,8.00555556 15.31925,8.05688889 C15.2975,8.08133333 15.2781667,8.10333333 15.2588333,8.12288889 C15.2370833,8.14488889 15.21775,8.16444444 15.196,8.17911111 C15.0945,8.25244444 14.9543333,8.30622222 14.8045,8.36 C14.6111667,8.43088889 14.3985,8.50911111 14.2269167,8.65088889 C14.1979167,8.67533333 14.1713333,8.69977778 14.14475,8.72666667 C14.1181667,8.75355556 14.094,8.78288889 14.0720083,8.81222222 C13.885925,9.06644444 13.8762583,9.38177778 13.8665917,9.658 C13.8593417,9.81933333 13.8545083,9.97333333 13.8182583,10.0882222 C13.78225,10.1982222 13.6998417,10.3228889 13.6128417,10.4524444 C13.4557583,10.6846667 13.2793417,10.9464667 13.2793417,11.2715778 C13.2793417,11.3006667 13.2817583,11.3275556 13.284175,11.3571333 C13.291425,11.4402444 13.3107583,11.5160222 13.334925,11.5866667 C13.334925,11.5893556 13.3373417,11.5918 13.3373417,11.5918 C13.36175,11.6626889 13.392925,11.7238 13.4221667,11.7800222 C13.4318333,11.7995778 13.4439167,11.8191333 13.4535833,11.8362444 C13.4753333,11.8729111 13.4970833,11.9071333 13.514,11.9340222 C13.55025,11.99 13.5816667,12.0391333 13.6155,12.0904667 C13.66625,12.1662444 13.7073333,12.2298 13.7414083,12.2884667 C13.7752417,12.3471333 13.7991667,12.3984667 13.816325,12.4473556 L13.8187417,12.4498 C13.8259917,12.4718 13.830825,12.4962444 13.8356583,12.5206889 C13.852575,12.5989111 13.859825,12.6893556 13.8622417,12.7846889 C13.8646583,12.8164667 13.8646583,12.8482444 13.867075,12.8824667 C13.8767417,13.1611333 13.8864083,13.4764667 14.070075,13.7255556 C14.2537417,13.9797778 14.5461583,14.0873333 14.802325,14.1802222 C14.9352417,14.2291111 15.0367417,14.2682222 15.114075,14.3097778 C15.1406583,14.3244444 15.164825,14.3391111 15.186575,14.3537778 C15.2107417,14.3708889 15.2349083,14.3928889 15.259075,14.4173333 C15.2738167,14.4322444 15.288075,14.4466667 15.3028167,14.4637778 C15.309825,14.4711111 15.3194917,14.4808889 15.3269833,14.4931111 C15.36565,14.5346667 15.4019,14.5808667 15.43815,14.63 C15.4478167,14.6422222 15.4599,14.6546889 15.4695667,14.6691111 C15.64115,14.894 15.8320667,15.1457778 16.1317333,15.2411111 C16.1728167,15.2560222 16.2163167,15.2631111 16.2574,15.2704444 C16.3057333,15.2802222 16.3564833,15.282707 16.4072333,15.282707 C16.4265667,15.282707 16.4459,15.282707 16.4652333,15.2777778 C16.5159833,15.2753333 16.5643167,15.268 16.6150667,15.2606667 C16.6392333,15.2557778 16.6658167,15.2533333 16.6899833,15.2484444 C16.6926417,15.2484444 16.6926417,15.2484444 16.6950583,15.2484444 C16.7675583,15.2337778 16.8376417,15.2142222 16.9053083,15.1971111 C16.929475,15.1897778 16.9509833,15.1848889 16.9727333,15.1775556 C17.0114,15.1653333 17.0524833,15.1555556 17.09115,15.1433333 C17.1588167,15.1237778 17.226725,15.1088667 17.2893167,15.0990889 C17.3328167,15.092 17.3714833,15.0868667 17.41015,15.0868667 C17.5334,15.0868667 17.6784,15.1284222 17.83065,15.1726667 C17.9464083,15.2068889 18.0747333,15.2435556 18.19315,15.2604222 C18.2291583,15.2677556 18.26565,15.2726444 18.3016583,15.2753333 L18.3139833,15.2753333 C18.3840667,15.2824222 18.4321583,15.2851111 18.4804917,15.2802222 C18.4952333,15.2777778 18.507075,15.2753333 18.521575,15.2753333 C18.5336583,15.2753333 18.5459833,15.2726444 18.557825,15.2702 C18.6061583,15.2628667 18.6399917,15.2530889 18.666575,15.2457556 L18.6907417,15.2406222 C18.7994917,15.2064 18.8961583,15.1477333 18.9807417,15.0768444 C19.0097417,15.0548444 19.0387417,15.0306444 19.065325,15.0035111 C19.0919083,14.9790667 19.1187333,14.9521778 19.1426583,14.9228444 C19.217575,14.8421778 19.2852417,14.7544222 19.348075,14.6710667 C19.3918167,14.6126444 19.4304833,14.5613111 19.4689083,14.5170667 C19.478575,14.5024 19.4909,14.4904222 19.5029833,14.4779556 C19.54165,14.4317556 19.5827333,14.3902 19.6238167,14.3584222 C19.7229,14.2875333 19.8654833,14.2362 20.0153167,14.1799778 C20.1431583,14.1337778 20.28115,14.0824444 20.4092333,14.0137556 C20.4889833,13.9673111 20.5687333,13.9159778 20.6361583,13.8499778 C20.6509,13.8402 20.6627417,13.8279778 20.674825,13.8133111 C20.7014083,13.7864222 20.725575,13.7573333 20.7499833,13.7253111 L20.7524,13.7228667 C20.9312333,13.4713333 20.9409,13.1582 20.950325,12.8795333 C20.9529833,12.8135333 20.9554,12.7722222 20.9554,12.738 C20.96265,12.6350889 20.9723167,12.5299778 20.9989,12.4493111 C21.0085667,12.4226667 21.02065,12.3933333 21.03515,12.3637556 C21.0544833,12.3222 21.080825,12.2757556 21.1100667,12.2293111 C21.13665,12.1828667 21.1704833,12.1361778 21.2019,12.0875333 C21.3420667,11.8795111 21.496975,11.6472889 21.5283917,11.3688667 C21.5308083,11.3664222 21.5308083,11.3615333 21.5308083,11.3590889 C21.533225,11.3419778 21.533225,11.3273111 21.533225,11.3128889 C21.5358833,11.2979778 21.5358833,11.286 21.5358833,11.2713333 C21.5358833,11.2028889 21.5286333,11.132 21.5138917,11.0730889 C21.5131667,11.0708889 21.5131667,11.0708889 21.51075,11.0684444 Z M17.40725,13.6302222 C16.7668333,13.6302222 16.184175,13.3711111 15.7612583,12.9482222 C15.7322583,12.9188889 15.7059167,12.8895556 15.6790917,12.8604667 L15.6790917,12.8577778 C15.4905917,12.6478 15.3383417,12.4033556 15.2320083,12.1342222 C15.205425,12.0682222 15.183675,11.9973333 15.1643417,11.9288889 C15.1496,11.8729111 15.1353417,11.8188889 15.1232583,11.7626667 C15.0891833,11.6037778 15.0725083,11.4375556 15.0725083,11.2686444 C15.0725083,11.1048667 15.0891833,10.9484222 15.1181833,10.7946667 C15.1425917,10.6795333 15.1737667,10.5670889 15.212675,10.4597778 C15.2247583,10.4231111 15.2390167,10.3864444 15.2537583,10.3522222 C15.2704333,10.318 15.285175,10.2813333 15.3020917,10.2449111 C15.4009333,10.0395778 15.5290167,9.85135556 15.6790917,9.68268889 C15.7032583,9.6558 15.7298417,9.62866667 15.756425,9.60202222 C15.7827667,9.57513333 15.8095917,9.548 15.836175,9.5238 C15.8385917,9.5238 15.8385917,9.52135556 15.8385917,9.52135556 C15.9425083,9.42577778 16.053675,9.34046667 16.1720917,9.26444444 C16.1745083,9.26444444 16.1745083,9.262 16.1745083,9.262 C16.532175,9.0398 16.9550917,8.91 17.40725,8.91 C17.7550083,8.91 18.0863333,8.98577778 18.3835833,9.12755556 C18.49475,9.17644444 18.6008417,9.23511111 18.7001667,9.30355556 C18.763,9.34266667 18.8234167,9.38666667 18.879,9.43555556 C18.937,9.482 18.9901667,9.53113333 19.0433333,9.58466667 C19.23425,9.77533333 19.39375,9.99753333 19.5121667,10.2446667 C19.5121667,10.2471111 19.5145833,10.2471111 19.5145833,10.2471111 C19.6595833,10.5575556 19.7415083,10.9022222 19.7415083,11.2688889 C19.7415083,12.5739778 18.6953333,13.6302222 17.40725,13.6302222 Z" id="Shape"></path>
                    <path d="M18.6677833,10.0024222 C18.5024833,9.87702222 18.2323,9.91637778 18.10905,10.0826 L16.9853,11.5930222 L16.6721,11.2693778 C16.527825,11.1200222 16.2569167,11.1163556 16.107325,11.2635111 C16.031925,11.3385556 15.9893917,11.4392667 15.9879417,11.5470667 C15.9864917,11.6548667 16.02685,11.7568 16.101525,11.8340444 L16.739525,12.4933111 C16.8142,12.5703111 16.9181167,12.6145556 17.0246917,12.6145556 L17.0495833,12.6133333 C17.1653417,12.6067333 17.2724,12.5485556 17.3439333,12.4537111 L18.7475333,10.5680667 C18.8120583,10.4808 18.8388833,10.3739778 18.823175,10.2688667 C18.8081917,10.1620444 18.7533333,10.0676889 18.6677833,10.0024222 Z" id="Path"></path>
                </g>
            </g>
        </g>
    </g>
</svg>