<?xml version="1.0" encoding="UTF-8"?>
<svg width="40px" height="40px" viewBox="0 0 40 40" version="1.1" xmlns="http://www.w3.org/2000/svg" xmlns:xlink="http://www.w3.org/1999/xlink">
    <!-- Generator: Sketch 58 (84663) - https://sketch.com -->
    <title>Education line</title>
    <desc>Created with Sketch.</desc>
    <g id="Education-line" stroke="none" stroke-width="1" fill="none" fill-rule="evenodd">
        <g id="education">
            <circle id="Oval" stroke="none" stroke-width="2.5" fill="#4F439A" cx="20" cy="20" r="18.75"></circle>
            <g id="Group" transform="translate(8.000000, 12.000000)" fill="#fff" fill-rule="nonzero">
                <path d="M12,9.76253793 C11.325,9.76253793 10.65,9.66057931 10,9.48215172 L4.4,7.77434483 L4.4,13.6902621 C4.4,14.4039724 4.85,15.0157241 5.525,15.2196414 L7.975,15.9588414 C10.675,16.7745103 13.525,16.7745103 16.225,15.9588414 L18.675,15.2196414 C19.35,15.0157241 19.8,14.4039724 19.8,13.6902621 L19.8,7.72336552 L14,9.48215172 C13.35,9.68606897 12.675,9.76253793 12,9.76253793 Z" id="Path"></path>
                <path d="M23.375,3.44110345 L13.5,0.458813793 C12.525,0.152937931 11.475,0.152937931 10.475,0.458813793 L0.625,3.44110345 C-0.05,3.64502069 -0.05,4.63911724 0.625,4.84303448 L10.5,7.82532414 C11.475,8.1312 12.525,8.1312 13.525,7.82532414 L21.975,5.27635862 L21.975,7.54493793 C21.8,7.64689655 21.675,7.82532414 21.675,8.02924138 L21.675,8.6409931 C21.675,8.8704 21.8,9.07431724 22,9.15078621 L21.475,10.3997793 C21.4,10.5782069 21.5,10.7566345 21.7,10.7821241 L22.25,10.8331034 C22.35,10.8331034 22.475,10.8331034 22.575,10.8331034 L23.125,10.7821241 C23.3,10.7566345 23.4,10.5782069 23.35,10.3997793 L22.825,9.15078621 C23.025,9.04882759 23.15,8.8704 23.15,8.6409931 L23.15,8.02924138 C23.15,7.82532414 23.025,7.64689655 22.85,7.54493793 L22.85,5.02146207 L23.4,4.84303448 C24.05,4.61362759 24.05,3.64502069 23.375,3.44110345 Z" id="Path"></path>
            </g>
        </g>
    </g>
</svg>