<?xml version="1.0" encoding="UTF-8"?>
<svg width="80px" height="94px" viewBox="0 0 80 94" version="1.1" xmlns="http://www.w3.org/2000/svg" xmlns:xlink="http://www.w3.org/1999/xlink">
    <!-- Generator: sketchtool 58 (101010) - https://sketch.com -->
    <title>1027EBED-51A0-4241-970C-E3A82B1FED31</title>
    <desc>Created with sketchtool.</desc>
    <g id="Contact-Us" stroke="none" stroke-width="1" fill="none" fill-rule="evenodd">
        <g id="Landing-page_With-new-footer" transform="translate(-120.000000, -3395.000000)" fill-rule="nonzero">
            <g id="mic" transform="translate(120.000000, 3395.000000)">
                <path d="M9.02356164,92.6113242 C7.8173516,93.8175342 5.87013699,93.8175342 4.66392694,92.6113242 C1.08894977,89.036347 -0.364200913,84.1534247 0.333333333,79.5031963 C0.769315068,76.3061187 2.22246575,73.2542466 4.66392694,70.8127854 C5.87013699,69.6065753 7.8173516,69.6065753 9.02356164,70.8127854 C10.2297717,72.0189954 10.2297717,73.96621 9.02356164,75.1724201 C5.41954338,78.7764384 5.41954338,84.6476712 9.02356164,88.2515068 C10.2297717,89.4577169 10.2297717,91.4049315 9.02356164,92.6113242 Z" id="Path" fill="#A1A7B3"></path>
                <path d="M9.02356164,92.6113242 C7.8173516,93.8175342 5.87013699,93.8175342 4.66392694,92.6113242 C1.08894977,89.036347 -0.364200913,84.1534247 0.333333333,79.5031963 L9.02374429,70.8127854 C10.2299543,72.0189954 10.2299543,73.96621 9.02374429,75.1724201 C5.41972603,78.7764384 5.41972603,84.6476712 9.02374429,88.2515068 C10.2297717,89.4577169 10.2297717,91.4049315 9.02356164,92.6113242 Z" id="Path" fill="#979CA7"></path>
                <path d="M45.9210959,51.3539726 L17.9318721,75.5358904 C13.4414612,79.910137 7.90447489,78.5875799 4.736621,75.0999087 C1.71378995,71.8155251 0.812785388,66.612968 4.85296804,62.4568037 L29.0347032,34.4675799 C30.1536073,33.1742466 32.1010046,33.0290411 33.3943379,34.1479452 L46.2409132,46.9945205 C47.3596347,48.2876712 47.2144292,50.2350685 45.9210959,51.3539726 Z" id="Path" fill="#F7EFF6"></path>
                <path d="M45.9210959,51.3539726 L17.9318721,75.5358904 C13.4414612,79.910137 7.90447489,78.5875799 4.736621,75.0999087 L39.5415525,40.2949772 L46.2410959,46.9945205 C47.3596347,48.2876712 47.2144292,50.2350685 45.9210959,51.3539726 Z" id="Path" fill="#F7EFF6"></path>
                <path d="M64.9472146,36.636347 C68.4173516,35.949589 71.7294977,34.2650228 74.4189954,31.5757078 C81.6423744,24.3523288 81.6423744,12.6409132 74.4189954,5.41753425 C67.1956164,-1.80584475 55.4842009,-1.80584475 48.2608219,5.41753425 C45.5713242,8.10703196 43.8869406,11.4188128 43.2001826,14.8893151 L64.9472146,36.636347 Z" id="Path" fill="#F7EFF6"></path>
                <path d="M64.9472146,36.636347 C68.4173516,35.949589 71.7294977,34.2650228 74.4189954,31.5757078 C81.6423744,24.3523288 81.6423744,12.6409132 74.4189954,5.41753425 L54.07379,25.7627397 L64.9472146,36.636347 Z" id="Path" fill="#F7EFF6"></path>
                <path d="M48.2606393,57.7336986 L22.1026484,31.5755251 C20.8988128,30.3716895 20.8988128,28.419726 22.1026484,27.2158904 L39.5413699,9.77716895 C40.7452055,8.57333333 42.6971689,8.57333333 43.9010046,9.77716895 L70.0591781,35.9353425 C71.2630137,37.1391781 71.2630137,39.0911416 70.0591781,40.2949772 L52.6204566,57.7336986 C51.416621,58.9377169 49.4646575,58.9377169 48.2606393,57.7336986 Z" id="Path" fill="#AD5DA3"></path>
                <path d="M70.0591781,35.9353425 L56.9800913,22.8562557 L35.1817352,44.6546119 L48.2608219,57.7336986 C49.4646575,58.9375342 51.416621,58.9375342 52.6204566,57.7336986 L70.0591781,40.2949772 C71.2630137,39.0909589 71.2630137,37.1391781 70.0591781,35.9353425 Z" id="Path" fill="#AD5DA3"></path>
                <path d="M53.0635616,39.8345205 C51.8509589,41.0471233 49.9190868,41.0471233 48.7066667,39.8345205 L39.9722374,31.1000913 C38.7596347,29.8874886 38.7596347,27.9351598 39.9722374,26.7431963 C41.1848402,25.5305936 43.1167123,25.5305936 44.3291324,26.7431963 L53.0635616,35.4776256 C54.276347,36.6697717 54.276347,38.6219178 53.0635616,39.8345205 Z" id="Path" fill="#FFFFFF"></path>
                <path d="M53.0635616,39.8345205 C51.8509589,41.0471233 49.9190868,41.0471233 48.7066667,39.8345205 L44.3497717,35.4776256 L48.7066667,31.1207306 L53.0635616,35.4776256 C54.276347,36.6697717 54.276347,38.6219178 53.0635616,39.8345205 Z" id="Path" fill="#DAE2F2"></path>
            </g>
        </g>
    </g>
</svg>