<?xml version="1.0" encoding="UTF-8"?>
<svg width="11px" height="19px" viewBox="0 0 11 19" version="1.1" xmlns="http://www.w3.org/2000/svg" xmlns:xlink="http://www.w3.org/1999/xlink">
    <!-- Generator: sketchtool 55.2 (78181) - https://sketchapp.com -->
    <title>3F70CA87-FA85-498D-BA05-BA1942E860B4</title>
    <desc>Created with sketchtool.</desc>
    <g id="Sign-up/Login-In" stroke="none" stroke-width="1" fill="none" fill-rule="evenodd">
        <g id="Sign-Up_Desktop" transform="translate(-999.000000, -571.000000)" fill="#4F439A" fill-rule="nonzero">
            <g id="Group-25" transform="translate(989.000000, 565.000000)">
                <g id="Group" transform="translate(10.000000, 6.000000)">
                    <g id="facebook-icon">
                        <path d="M2.98780145,18.055556 L2.98780145,9.97992645 L0,9.97992645 L0,6.77083349 L2.98780145,6.77083349 L2.98780145,4.23177093 C2.98780145,2.89170344 3.40169188,1.85140349 4.22948517,1.11083987 C5.05727845,0.370276254 6.15667492,0 7.52770755,0 C8.64005477,0 9.5454401,0.0470192068 10.2438907,0.141059031 L10.2438907,2.99750441 L8.3813651,2.99750441 C7.68291452,2.99750441 7.20435371,3.13856203 6.9456683,3.4206815 C6.73871998,3.65578106 6.63524737,4.03193472 6.63524737,4.54915375 L6.63524737,6.77083349 L9.93346975,6.77083349 L9.46783836,9.97992645 L6.63524737,9.97992645 L6.63524737,18.055556 L2.98780145,18.055556 Z" id=""></path>
                    </g>
                </g>
            </g>
        </g>
    </g>
</svg>